<svg width="25" height="25" viewBox="0 0 25 25" fill="none" xmlns="http://www.w3.org/2000/svg">
<path fill-rule="evenodd" clip-rule="evenodd" d="M12.5 24.2187C18.5406 24.2187 23.4375 19.3219 23.4375 13.2812C23.4375 7.24064 18.5406 2.34375 12.5 2.34375C6.45939 2.34375 1.5625 7.24064 1.5625 13.2812C1.5625 15.2429 2.0789 17.0839 2.98318 18.6758L1.5625 24.2187L7.27724 22.8936C8.8292 23.7386 10.6085 24.2187 12.5 24.2187ZM12.5 22.5361C17.6113 22.5361 21.7548 18.3925 21.7548 13.2812C21.7548 8.16996 17.6113 4.02644 12.5 4.02644C7.38871 4.02644 3.24519 8.16996 3.24519 13.2812C3.24519 15.2547 3.86289 17.084 4.9155 18.5861L4.08654 21.6947L7.24995 20.9039C8.74169 21.9333 10.5504 22.5361 12.5 22.5361Z" fill="white"/>
<path fill-rule="evenodd" clip-rule="evenodd" d="M12.5 23.4375C18.5406 23.4375 23.4375 18.5406 23.4375 12.5C23.4375 6.45939 18.5406 1.5625 12.5 1.5625C6.45939 1.5625 1.5625 6.45939 1.5625 12.5C1.5625 14.4616 2.0789 16.3026 2.98318 17.8945L1.5625 23.4375L7.27724 22.1123C8.8292 22.9574 10.6085 23.4375 12.5 23.4375ZM12.5 21.7548C17.6113 21.7548 21.7548 17.6113 21.7548 12.5C21.7548 7.38871 17.6113 3.24519 12.5 3.24519C7.38871 3.24519 3.24519 7.38871 3.24519 12.5C3.24519 14.4735 3.86289 16.3027 4.9155 17.8049L4.08654 20.9135L7.24995 20.1226C8.74169 21.152 10.5504 21.7548 12.5 21.7548Z" fill="white"/>
<path d="M9.76564 7.42183C9.50559 6.89951 9.10666 6.94575 8.70365 6.94575C7.98341 6.94575 6.86035 7.80847 6.86035 9.41407C6.86035 10.73 7.44019 12.1704 9.39408 14.3251C11.2797 16.4046 13.7573 17.4804 15.8142 17.4437C17.8711 17.4071 18.2943 15.6371 18.2943 15.0394C18.2943 14.7744 18.1299 14.6422 18.0166 14.6063C17.3157 14.2699 16.0229 13.6431 15.7288 13.5254C15.4346 13.4076 15.281 13.5669 15.1856 13.6535C14.9188 13.9077 14.39 14.6569 14.209 14.8254C14.0279 14.9939 13.758 14.9086 13.6457 14.8449C13.2324 14.6791 12.1117 14.1806 11.2183 13.3146C10.1135 12.2436 10.0487 11.8752 9.84055 11.5472C9.67403 11.2848 9.79622 11.1238 9.8572 11.0534C10.0952 10.7788 10.4239 10.3547 10.5713 10.144C10.7187 9.93328 10.6017 9.61334 10.5315 9.41408C10.2295 8.55709 9.97368 7.83969 9.76564 7.42183Z" fill="white"/>
</svg>
